<svg width="157" height="88" viewBox="0 0 157 88" fill="none" xmlns="http://www.w3.org/2000/svg">
<path d="M85.008 73.896C86.112 73.896 87.056 74.136 87.84 74.616C88.64 75.096 89.248 75.776 89.664 76.656C90.096 77.52 90.312 78.536 90.312 79.704V80.976H81.504C81.536 82.432 81.904 83.544 82.608 84.312C83.328 85.064 84.328 85.44 85.608 85.44C86.424 85.44 87.144 85.368 87.768 85.224C88.408 85.064 89.064 84.84 89.736 84.552V86.4C89.08 86.688 88.432 86.896 87.792 87.024C87.152 87.168 86.392 87.24 85.512 87.24C84.296 87.24 83.216 86.992 82.272 86.496C81.344 86 80.616 85.264 80.088 84.288C79.576 83.296 79.32 82.088 79.32 80.664C79.32 79.256 79.552 78.048 80.016 77.04C80.496 76.032 81.16 75.256 82.008 74.712C82.872 74.168 83.872 73.896 85.008 73.896ZM84.984 75.624C83.976 75.624 83.176 75.952 82.584 76.608C82.008 77.248 81.664 78.144 81.552 79.296H88.104C88.088 78.208 87.832 77.328 87.336 76.656C86.84 75.968 86.056 75.624 84.984 75.624ZM99.5149 75.768H96.2749V87H94.1629V75.768H91.9069V74.784L94.1629 74.064V73.32C94.1629 71.656 94.5309 70.464 95.2669 69.744C96.0029 69.008 97.0269 68.64 98.3389 68.64C98.8509 68.64 99.3149 68.688 99.7309 68.784C100.163 68.864 100.531 68.96 100.835 69.072L100.283 70.728C100.027 70.648 99.7309 70.568 99.3949 70.488C99.0589 70.408 98.7149 70.368 98.3629 70.368C97.6589 70.368 97.1309 70.608 96.7789 71.088C96.4429 71.552 96.2749 72.288 96.2749 73.296V74.136H99.5149V75.768ZM112.589 74.136V87H110.861L110.549 85.296H110.453C110.037 85.968 109.461 86.464 108.725 86.784C107.989 87.088 107.205 87.24 106.373 87.24C104.821 87.24 103.653 86.872 102.869 86.136C102.085 85.384 101.693 84.192 101.693 82.56V74.136H103.829V82.416C103.829 84.464 104.781 85.488 106.685 85.488C108.109 85.488 109.093 85.088 109.637 84.288C110.197 83.488 110.477 82.336 110.477 80.832V74.136H112.589ZM121.641 73.896C122.745 73.896 123.689 74.136 124.473 74.616C125.273 75.096 125.881 75.776 126.297 76.656C126.729 77.52 126.945 78.536 126.945 79.704V80.976H118.137C118.169 82.432 118.537 83.544 119.241 84.312C119.961 85.064 120.961 85.44 122.241 85.44C123.057 85.44 123.777 85.368 124.401 85.224C125.041 85.064 125.697 84.84 126.369 84.552V86.4C125.713 86.688 125.065 86.896 124.425 87.024C123.785 87.168 123.025 87.24 122.145 87.24C120.929 87.24 119.849 86.992 118.905 86.496C117.977 86 117.249 85.264 116.721 84.288C116.209 83.296 115.953 82.088 115.953 80.664C115.953 79.256 116.185 78.048 116.649 77.04C117.129 76.032 117.793 75.256 118.641 74.712C119.505 74.168 120.505 73.896 121.641 73.896ZM121.617 75.624C120.609 75.624 119.809 75.952 119.217 76.608C118.641 77.248 118.297 78.144 118.185 79.296H124.737C124.721 78.208 124.465 77.328 123.969 76.656C123.473 75.968 122.689 75.624 121.617 75.624ZM132.332 87H130.22V68.76H132.332V87ZM136.289 85.5352C136.289 85.2227 136.328 84.9648 136.406 84.7617C136.484 84.5508 136.59 84.3828 136.723 84.2578C136.863 84.1328 137.023 84.043 137.203 83.9883C137.391 83.9336 137.59 83.9062 137.801 83.9062C138.004 83.9062 138.195 83.9336 138.375 83.9883C138.562 84.043 138.723 84.1328 138.855 84.2578C138.996 84.3828 139.105 84.5508 139.184 84.7617C139.27 84.9648 139.312 85.2227 139.312 85.5352C139.312 85.8398 139.27 86.0977 139.184 86.3086C139.105 86.5195 138.996 86.6875 138.855 86.8125C138.723 86.9375 138.562 87.0273 138.375 87.082C138.195 87.1367 138.004 87.1641 137.801 87.1641C137.59 87.1641 137.391 87.1367 137.203 87.082C137.023 87.0273 136.863 86.9375 136.723 86.8125C136.59 86.6875 136.484 86.5195 136.406 86.3086C136.328 86.0977 136.289 85.8398 136.289 85.5352ZM144.354 69.312C144.674 69.312 144.954 69.424 145.194 69.648C145.45 69.856 145.578 70.192 145.578 70.656C145.578 71.104 145.45 71.44 145.194 71.664C144.954 71.888 144.674 72 144.354 72C144.002 72 143.706 71.888 143.466 71.664C143.226 71.44 143.106 71.104 143.106 70.656C143.106 70.192 143.226 69.856 143.466 69.648C143.706 69.424 144.002 69.312 144.354 69.312ZM145.386 74.136V87H143.274V74.136H145.386ZM153.758 85.512C154.078 85.512 154.406 85.488 154.742 85.44C155.078 85.376 155.35 85.312 155.558 85.248V86.856C155.334 86.968 155.014 87.056 154.598 87.12C154.182 87.2 153.782 87.24 153.398 87.24C152.726 87.24 152.102 87.128 151.526 86.904C150.966 86.664 150.51 86.256 150.158 85.68C149.806 85.104 149.63 84.296 149.63 83.256V75.768H147.806V74.76L149.654 73.92L150.494 71.184H151.742V74.136H155.462V75.768H151.742V83.208C151.742 83.992 151.926 84.576 152.294 84.96C152.678 85.328 153.166 85.512 153.758 85.512Z" fill="black"/>
<path d="M32 79.8484C32 78.3023 32.7153 76.8431 33.9376 75.896L39.9376 71.247C43.2232 68.7012 48 71.043 48 75.1994V83C48 85.7614 45.7614 88 43 88H37C34.2386 88 32 85.7614 32 83V79.8484Z" fill="black"/>
<path d="M51.7877 67.325C51.3043 65.5078 51.8814 63.5731 53.2811 62.3176L61.9725 54.522C64.7714 52.0115 69.2357 53.3724 70.1582 57.0173L76.424 81.7732C77.2236 84.9324 74.8357 88 71.5768 88H61.1308C58.8644 88 56.8814 86.4755 56.2988 84.2852L51.7877 67.325Z" fill="black"/>
<path d="M27.3375 34.3311C25.6361 18.5675 41.6756 6.0081 56.9943 11.1089V11.1089C72.8881 16.4012 76.2884 36.6671 63.1021 47.5121L34.5812 70.9691C34.3615 71.1498 34.108 71.2869 33.836 71.3722V71.3722C32.575 71.7674 31.2921 70.9702 31.1557 69.7066L27.3375 34.3311Z" fill="black"/>
<path d="M37.9629 32.4124C37.4532 23.8495 46.2022 17.3082 54.4788 20.0641V20.0641C63.0489 22.9178 65.1503 33.6922 58.3422 39.8732L41.0708 55.5536C40.967 55.6479 40.8457 55.7219 40.714 55.7715V55.7715C40.0481 56.022 39.3428 55.5897 39.3021 54.9061L37.9629 32.4124Z" fill="#FBF330"/>
<rect width="1.66081" height="19.3888" rx="0.830407" transform="matrix(0.728303 0.685255 -0.734645 0.678452 58.364 35.5326)" fill="url(#paint0_linear)"/>
<defs>
<linearGradient id="paint0_linear" x1="0.830407" y1="0" x2="0.830407" y2="19.3888" gradientUnits="userSpaceOnUse">
<stop stop-color="#FF280B"/>
<stop offset="1" stop-color="#E37232" stop-opacity="0"/>
</linearGradient>
</defs>
</svg>
